<svg width="1750" height="851" viewBox="0 0 1750 851" fill="none" xmlns="http://www.w3.org/2000/svg">
<path d="M478.46 662V567.455H515.761C522.932 567.455 529.042 568.824 534.089 571.563C539.136 574.272 542.983 578.042 545.63 582.874C548.308 587.675 549.646 593.214 549.646 599.493C549.646 605.771 548.292 611.311 545.584 616.112C542.876 620.913 538.952 624.653 533.812 627.33C528.703 630.008 522.517 631.347 515.254 631.347H491.479V615.327H512.022C515.869 615.327 519.039 614.666 521.532 613.342C524.056 611.988 525.933 610.126 527.164 607.756C528.426 605.356 529.057 602.601 529.057 599.493C529.057 596.354 528.426 593.615 527.164 591.276C525.933 588.906 524.056 587.075 521.532 585.782C519.008 584.459 515.808 583.797 511.93 583.797H498.45V662H478.46ZM557.061 662V591.091H576.127V603.463H576.866C578.158 599.062 580.328 595.738 583.375 593.491C586.422 591.214 589.93 590.075 593.9 590.075C594.885 590.075 595.947 590.137 597.086 590.26C598.225 590.383 599.225 590.552 600.086 590.768V608.218C599.163 607.941 597.886 607.695 596.255 607.479C594.624 607.264 593.131 607.156 591.777 607.156C588.884 607.156 586.299 607.787 584.021 609.049C581.774 610.28 579.989 612.004 578.666 614.219C577.373 616.435 576.727 618.99 576.727 621.883V662H557.061ZM633.792 663.385C626.621 663.385 620.419 661.862 615.187 658.815C609.986 655.737 605.97 651.459 603.138 645.981C600.307 640.472 598.891 634.086 598.891 626.822C598.891 619.498 600.307 613.096 603.138 607.618C605.97 602.109 609.986 597.831 615.187 594.784C620.419 591.706 626.621 590.168 633.792 590.168C640.963 590.168 647.149 591.706 652.35 594.784C657.582 597.831 661.614 602.109 664.445 607.618C667.277 613.096 668.692 619.498 668.692 626.822C668.692 634.086 667.277 640.472 664.445 645.981C661.614 651.459 657.582 655.737 652.35 658.815C647.149 661.862 640.963 663.385 633.792 663.385ZM633.884 648.151C637.146 648.151 639.87 647.227 642.055 645.381C644.24 643.503 645.887 640.949 646.995 637.717C648.134 634.486 648.703 630.808 648.703 626.684C648.703 622.56 648.134 618.882 646.995 615.651C645.887 612.419 644.24 609.865 642.055 607.987C639.87 606.11 637.146 605.171 633.884 605.171C630.591 605.171 627.821 606.11 625.575 607.987C623.359 609.865 621.681 612.419 620.543 615.651C619.435 618.882 618.881 622.56 618.881 626.684C618.881 630.808 619.435 634.486 620.543 637.717C621.681 640.949 623.359 643.503 625.575 645.381C627.821 647.227 630.591 648.151 633.884 648.151ZM676.28 591.091H695.946V665.509C695.946 670.987 694.869 675.419 692.715 678.804C690.56 682.189 687.467 684.667 683.436 686.237C679.435 687.806 674.649 688.591 669.078 688.591C668.401 688.591 667.755 688.576 667.139 688.545C666.493 688.545 665.816 688.529 665.108 688.499V673.126C665.631 673.156 666.093 673.172 666.493 673.172C666.862 673.203 667.263 673.218 667.693 673.218C670.863 673.218 673.079 672.541 674.341 671.187C675.634 669.863 676.28 667.863 676.28 665.185V591.091ZM686.067 581.95C683.174 581.95 680.681 580.981 678.588 579.042C676.495 577.072 675.449 574.718 675.449 571.979C675.449 569.27 676.495 566.947 678.588 565.008C680.681 563.038 683.174 562.053 686.067 562.053C689.022 562.053 691.53 563.038 693.592 565.008C695.685 566.947 696.731 569.27 696.731 571.979C696.731 574.718 695.685 577.072 693.592 579.042C691.53 580.981 689.022 581.95 686.067 581.95ZM738.815 663.385C731.521 663.385 725.243 661.908 719.98 658.953C714.748 655.968 710.716 651.751 707.885 646.304C705.053 640.826 703.638 634.347 703.638 626.869C703.638 619.575 705.053 613.173 707.885 607.664C710.716 602.155 714.702 597.862 719.842 594.784C725.012 591.706 731.075 590.168 738.031 590.168C742.709 590.168 747.063 590.922 751.095 592.43C755.158 593.907 758.697 596.138 761.713 599.124C764.76 602.109 767.13 605.864 768.822 610.388C770.515 614.881 771.361 620.144 771.361 626.176V631.577H711.486V619.39H752.849C752.849 616.558 752.234 614.05 751.003 611.865C749.772 609.68 748.064 607.972 745.879 606.741C743.724 605.479 741.216 604.848 738.354 604.848C735.368 604.848 732.722 605.54 730.413 606.925C728.136 608.28 726.351 610.111 725.058 612.419C723.766 614.696 723.104 617.236 723.073 620.036V631.624C723.073 635.132 723.719 638.164 725.012 640.718C726.335 643.272 728.197 645.242 730.598 646.627C732.999 648.012 735.845 648.705 739.138 648.705C741.324 648.705 743.324 648.397 745.14 647.781C746.956 647.166 748.51 646.242 749.803 645.011C751.095 643.78 752.08 642.272 752.757 640.487L770.946 641.688C770.023 646.058 768.13 649.874 765.268 653.136C762.436 656.368 758.774 658.892 754.281 660.707C749.818 662.492 744.663 663.385 738.815 663.385ZM811.034 663.385C803.77 663.385 797.523 661.846 792.291 658.768C787.09 655.66 783.089 651.351 780.288 645.842C777.518 640.333 776.133 633.993 776.133 626.822C776.133 619.559 777.533 613.188 780.334 607.71C783.166 602.201 787.182 597.908 792.383 594.83C797.584 591.722 803.77 590.168 810.941 590.168C817.127 590.168 822.544 591.291 827.191 593.538C831.839 595.784 835.516 598.939 838.225 603.001C840.933 607.064 842.426 611.834 842.703 617.312H824.144C823.621 613.773 822.236 610.926 819.99 608.772C817.774 606.587 814.865 605.494 811.264 605.494C808.218 605.494 805.555 606.325 803.278 607.987C801.031 609.618 799.277 612.004 798.015 615.143C796.753 618.282 796.122 622.083 796.122 626.545C796.122 631.07 796.738 634.917 797.969 638.087C799.231 641.257 801 643.673 803.278 645.335C805.555 646.996 808.218 647.827 811.264 647.827C813.511 647.827 815.527 647.366 817.312 646.442C819.128 645.519 820.621 644.18 821.79 642.426C822.99 640.641 823.775 638.502 824.144 636.009H842.703C842.395 641.426 840.918 646.196 838.271 650.32C835.655 654.414 832.039 657.614 827.422 659.923C822.806 662.231 817.343 663.385 811.034 663.385ZM887.811 591.091V605.864H845.108V591.091H887.811ZM854.803 574.102H874.469V640.21C874.469 642.026 874.746 643.442 875.3 644.457C875.854 645.442 876.623 646.135 877.608 646.535C878.624 646.935 879.793 647.135 881.117 647.135C882.04 647.135 882.963 647.058 883.887 646.904C884.81 646.719 885.518 646.581 886.01 646.489L889.103 661.123C888.118 661.431 886.734 661.785 884.949 662.185C883.163 662.616 880.994 662.877 878.439 662.969C873.7 663.154 869.545 662.523 865.975 661.077C862.435 659.63 859.681 657.384 857.711 654.337C855.742 651.29 854.772 647.443 854.803 642.795V574.102ZM971.968 594.646C971.598 590.922 970.013 588.029 967.213 585.967C964.412 583.905 960.611 582.874 955.81 582.874C952.548 582.874 949.793 583.335 947.547 584.259C945.3 585.151 943.576 586.397 942.376 587.998C941.207 589.598 940.622 591.414 940.622 593.445C940.56 595.138 940.914 596.615 941.684 597.877C942.484 599.139 943.576 600.232 944.961 601.155C946.346 602.047 947.947 602.832 949.762 603.509C951.578 604.156 953.517 604.71 955.579 605.171L964.074 607.202C968.198 608.126 971.983 609.357 975.43 610.896C978.877 612.434 981.862 614.327 984.386 616.574C986.91 618.821 988.864 621.467 990.249 624.514C991.665 627.561 992.388 631.054 992.419 634.994C992.388 640.78 990.911 645.796 987.987 650.043C985.094 654.26 980.908 657.537 975.43 659.876C969.983 662.185 963.412 663.339 955.718 663.339C948.085 663.339 941.437 662.169 935.775 659.83C930.142 657.491 925.741 654.029 922.571 649.443C919.432 644.827 917.786 639.118 917.632 632.316H936.975C937.19 635.486 938.098 638.133 939.699 640.256C941.33 642.349 943.499 643.934 946.208 645.011C948.947 646.058 952.04 646.581 955.487 646.581C958.872 646.581 961.811 646.089 964.304 645.104C966.828 644.119 968.782 642.749 970.167 640.995C971.552 639.241 972.245 637.225 972.245 634.947C972.245 632.824 971.614 631.039 970.352 629.592C969.121 628.146 967.305 626.915 964.905 625.899C962.535 624.884 959.626 623.96 956.179 623.129L945.885 620.544C937.914 618.605 931.62 615.574 927.003 611.45C922.387 607.326 920.094 601.77 920.125 594.784C920.094 589.06 921.617 584.058 924.695 579.781C927.803 575.503 932.066 572.163 937.483 569.763C942.899 567.362 949.055 566.162 955.949 566.162C962.966 566.162 969.09 567.362 974.322 569.763C979.585 572.163 983.678 575.503 986.602 579.781C989.526 584.058 991.034 589.013 991.126 594.646H971.968ZM1000.66 662V567.455H1064.37V583.935H1020.65V606.464H1061.09V622.945H1020.65V645.519H1064.56V662H1000.66ZM1075.06 662V567.455H1095.05V609.141H1096.3L1130.32 567.455H1154.28L1119.2 609.788L1154.7 662H1130.78L1104.89 623.129L1095.05 635.132V662H1075.06ZM1175.79 662H1154.37L1187.01 567.455H1212.77L1245.36 662H1223.94L1200.26 589.06H1199.52L1175.79 662ZM1174.45 624.837H1225.05V640.441H1174.45V624.837ZM1271.53 567.455V662H1251.54V567.455H1271.53Z" fill="white"/>
<path d="M565.431 707.364H571.482L583.584 727.733H584.095L596.198 707.364H602.249L586.482 733.017V751H581.198V733.017L565.431 707.364ZM617.494 751.682C614.34 751.682 611.62 750.986 609.333 749.594C607.061 748.188 605.306 746.227 604.07 743.713C602.849 741.185 602.238 738.244 602.238 734.892C602.238 731.54 602.849 728.585 604.07 726.028C605.306 723.457 607.025 721.455 609.227 720.02C611.443 718.571 614.028 717.847 616.982 717.847C618.687 717.847 620.37 718.131 622.032 718.699C623.694 719.267 625.207 720.19 626.57 721.469C627.934 722.733 629.021 724.409 629.83 726.497C630.64 728.585 631.045 731.156 631.045 734.21V736.341H605.818V731.994H625.931C625.931 730.148 625.562 728.5 624.823 727.051C624.099 725.602 623.062 724.459 621.713 723.621C620.377 722.783 618.801 722.364 616.982 722.364C614.98 722.364 613.247 722.861 611.784 723.855C610.335 724.835 609.22 726.114 608.438 727.69C607.657 729.267 607.267 730.957 607.267 732.761V735.659C607.267 738.131 607.693 740.226 608.545 741.945C609.411 743.649 610.612 744.949 612.146 745.844C613.68 746.724 615.463 747.165 617.494 747.165C618.815 747.165 620.008 746.98 621.073 746.611C622.153 746.227 623.083 745.659 623.865 744.906C624.646 744.139 625.249 743.187 625.676 742.051L630.534 743.415C630.022 745.062 629.163 746.511 627.955 747.761C626.748 748.997 625.257 749.963 623.481 750.659C621.705 751.341 619.71 751.682 617.494 751.682ZM652.927 718.273V722.534H635.967V718.273H652.927ZM640.91 710.432H645.938V741.625C645.938 743.045 646.144 744.111 646.556 744.821C646.982 745.517 647.522 745.986 648.176 746.227C648.843 746.455 649.546 746.568 650.285 746.568C650.839 746.568 651.294 746.54 651.649 746.483C652.004 746.412 652.288 746.355 652.501 746.312L653.524 750.83C653.183 750.957 652.707 751.085 652.096 751.213C651.485 751.355 650.711 751.426 649.774 751.426C648.353 751.426 646.961 751.121 645.597 750.51C644.248 749.899 643.126 748.969 642.231 747.719C641.35 746.469 640.91 744.892 640.91 742.989V710.432ZM686.997 751.767C684.923 751.767 683.041 751.376 681.35 750.595C679.66 749.8 678.318 748.656 677.323 747.165C676.329 745.659 675.832 743.841 675.832 741.71C675.832 739.835 676.201 738.315 676.94 737.151C677.678 735.972 678.666 735.048 679.901 734.381C681.137 733.713 682.501 733.216 683.992 732.889C685.498 732.548 687.011 732.278 688.531 732.08C690.519 731.824 692.132 731.632 693.367 731.504C694.617 731.362 695.526 731.128 696.095 730.801C696.677 730.474 696.968 729.906 696.968 729.097V728.926C696.968 726.824 696.393 725.19 695.242 724.026C694.106 722.861 692.38 722.278 690.065 722.278C687.664 722.278 685.782 722.804 684.419 723.855C683.055 724.906 682.096 726.028 681.542 727.222L676.769 725.517C677.622 723.528 678.758 721.98 680.178 720.872C681.613 719.75 683.176 718.969 684.866 718.528C686.57 718.074 688.247 717.847 689.894 717.847C690.945 717.847 692.153 717.974 693.517 718.23C694.894 718.472 696.222 718.976 697.501 719.743C698.794 720.51 699.866 721.668 700.718 723.216C701.57 724.764 701.997 726.838 701.997 729.438V751H696.968V746.568H696.713C696.372 747.278 695.803 748.038 695.008 748.848C694.213 749.658 693.154 750.347 691.833 750.915C690.512 751.483 688.9 751.767 686.997 751.767ZM687.764 747.25C689.752 747.25 691.428 746.859 692.792 746.078C694.17 745.297 695.207 744.288 695.903 743.053C696.613 741.817 696.968 740.517 696.968 739.153V734.551C696.755 734.807 696.286 735.041 695.562 735.254C694.852 735.453 694.028 735.631 693.09 735.787C692.167 735.929 691.265 736.057 690.384 736.17C689.518 736.27 688.815 736.355 688.275 736.426C686.968 736.597 685.747 736.874 684.61 737.257C683.488 737.626 682.579 738.187 681.883 738.94C681.201 739.679 680.86 740.687 680.86 741.966C680.86 743.713 681.507 745.034 682.799 745.929C684.106 746.81 685.761 747.25 687.764 747.25ZM716.203 731.312V751H711.175V718.273H716.032V723.386H716.459C717.226 721.724 718.39 720.389 719.953 719.381C721.515 718.358 723.532 717.847 726.004 717.847C728.22 717.847 730.159 718.301 731.821 719.21C733.483 720.105 734.775 721.469 735.699 723.301C736.622 725.119 737.084 727.42 737.084 730.205V751H732.055V730.545C732.055 727.974 731.388 725.972 730.052 724.537C728.717 723.088 726.885 722.364 724.555 722.364C722.95 722.364 721.515 722.712 720.251 723.408C719.001 724.104 718.014 725.119 717.29 726.455C716.565 727.79 716.203 729.409 716.203 731.312ZM759.568 751.682C756.613 751.682 754.021 750.979 751.791 749.572C749.575 748.166 747.842 746.199 746.592 743.67C745.356 741.142 744.738 738.187 744.738 734.807C744.738 731.398 745.356 728.422 746.592 725.879C747.842 723.337 749.575 721.362 751.791 719.956C754.021 718.55 756.613 717.847 759.568 717.847C762.522 717.847 765.107 718.55 767.323 719.956C769.553 721.362 771.286 723.337 772.522 725.879C773.772 728.422 774.397 731.398 774.397 734.807C774.397 738.187 773.772 741.142 772.522 743.67C771.286 746.199 769.553 748.166 767.323 749.572C765.107 750.979 762.522 751.682 759.568 751.682ZM759.568 747.165C761.812 747.165 763.659 746.589 765.107 745.439C766.556 744.288 767.629 742.776 768.325 740.901C769.021 739.026 769.369 736.994 769.369 734.807C769.369 732.619 769.021 730.581 768.325 728.692C767.629 726.803 766.556 725.276 765.107 724.111C763.659 722.946 761.812 722.364 759.568 722.364C757.323 722.364 755.477 722.946 754.028 724.111C752.579 725.276 751.507 726.803 750.811 728.692C750.115 730.581 749.767 732.619 749.767 734.807C749.767 736.994 750.115 739.026 750.811 740.901C751.507 742.776 752.579 744.288 754.028 745.439C755.477 746.589 757.323 747.165 759.568 747.165ZM796.306 718.273V722.534H779.346V718.273H796.306ZM784.289 710.432H789.317V741.625C789.317 743.045 789.523 744.111 789.935 744.821C790.361 745.517 790.901 745.986 791.555 746.227C792.222 746.455 792.925 746.568 793.664 746.568C794.218 746.568 794.672 746.54 795.028 746.483C795.383 746.412 795.667 746.355 795.88 746.312L796.903 750.83C796.562 750.957 796.086 751.085 795.475 751.213C794.864 751.355 794.09 751.426 793.153 751.426C791.732 751.426 790.34 751.121 788.976 750.51C787.627 749.899 786.505 748.969 785.61 747.719C784.729 746.469 784.289 744.892 784.289 742.989V710.432ZM809.601 731.312V751H804.573V707.364H809.601V723.386H810.028C810.795 721.696 811.945 720.354 813.479 719.359C815.028 718.351 817.087 717.847 819.658 717.847C821.888 717.847 823.841 718.294 825.518 719.189C827.194 720.07 828.493 721.426 829.417 723.259C830.354 725.077 830.823 727.392 830.823 730.205V751H825.795V730.545C825.795 727.946 825.12 725.936 823.77 724.516C822.435 723.081 820.581 722.364 818.209 722.364C816.562 722.364 815.084 722.712 813.778 723.408C812.485 724.104 811.462 725.119 810.709 726.455C809.971 727.79 809.601 729.409 809.601 731.312ZM853.744 751.682C850.59 751.682 847.87 750.986 845.583 749.594C843.311 748.188 841.556 746.227 840.32 743.713C839.099 741.185 838.488 738.244 838.488 734.892C838.488 731.54 839.099 728.585 840.32 726.028C841.556 723.457 843.275 721.455 845.477 720.02C847.693 718.571 850.278 717.847 853.232 717.847C854.937 717.847 856.62 718.131 858.282 718.699C859.944 719.267 861.457 720.19 862.82 721.469C864.184 722.733 865.271 724.409 866.08 726.497C866.89 728.585 867.295 731.156 867.295 734.21V736.341H842.068V731.994H862.181C862.181 730.148 861.812 728.5 861.073 727.051C860.349 725.602 859.312 724.459 857.963 723.621C856.627 722.783 855.051 722.364 853.232 722.364C851.23 722.364 849.497 722.861 848.034 723.855C846.585 724.835 845.47 726.114 844.688 727.69C843.907 729.267 843.517 730.957 843.517 732.761V735.659C843.517 738.131 843.943 740.226 844.795 741.945C845.661 743.649 846.862 744.949 848.396 745.844C849.93 746.724 851.713 747.165 853.744 747.165C855.065 747.165 856.258 746.98 857.323 746.611C858.403 746.227 859.333 745.659 860.115 744.906C860.896 744.139 861.499 743.187 861.926 742.051L866.784 743.415C866.272 745.062 865.413 746.511 864.205 747.761C862.998 748.997 861.507 749.963 859.731 750.659C857.955 751.341 855.96 751.682 853.744 751.682ZM874.944 751V718.273H879.802V723.216H880.143C880.74 721.597 881.819 720.283 883.382 719.274C884.944 718.266 886.705 717.761 888.666 717.761C889.035 717.761 889.497 717.768 890.051 717.783C890.605 717.797 891.024 717.818 891.308 717.847V722.96C891.137 722.918 890.747 722.854 890.136 722.768C889.539 722.669 888.907 722.619 888.24 722.619C886.649 722.619 885.228 722.953 883.978 723.621C882.742 724.274 881.762 725.183 881.038 726.348C880.328 727.499 879.972 728.812 879.972 730.29V751H874.944ZM949.939 721H944.655C944.342 719.48 943.795 718.145 943.014 716.994C942.247 715.844 941.309 714.878 940.202 714.097C939.108 713.301 937.893 712.705 936.558 712.307C935.223 711.909 933.831 711.71 932.382 711.71C929.74 711.71 927.346 712.378 925.202 713.713C923.071 715.048 921.373 717.016 920.109 719.615C918.859 722.214 918.234 725.403 918.234 729.182C918.234 732.96 918.859 736.149 920.109 738.749C921.373 741.348 923.071 743.315 925.202 744.651C927.346 745.986 929.74 746.653 932.382 746.653C933.831 746.653 935.223 746.455 936.558 746.057C937.893 745.659 939.108 745.07 940.202 744.288C941.309 743.493 942.247 742.52 943.014 741.369C943.795 740.205 944.342 738.869 944.655 737.364H949.939C949.541 739.594 948.817 741.589 947.765 743.351C946.714 745.112 945.407 746.611 943.845 747.847C942.282 749.068 940.528 749.999 938.582 750.638C936.65 751.277 934.584 751.597 932.382 751.597C928.66 751.597 925.351 750.688 922.453 748.869C919.555 747.051 917.275 744.466 915.613 741.114C913.952 737.761 913.121 733.784 913.121 729.182C913.121 724.58 913.952 720.602 915.613 717.25C917.275 713.898 919.555 711.312 922.453 709.494C925.351 707.676 928.66 706.767 932.382 706.767C934.584 706.767 936.65 707.087 938.582 707.726C940.528 708.365 942.282 709.303 943.845 710.538C945.407 711.76 946.714 713.251 947.765 715.013C948.817 716.76 949.541 718.756 949.939 721ZM956.091 712.051V707.364H988.818V712.051H975.097V751H969.813V712.051H956.091ZM996.974 751V707.364H1023.14V712.051H1002.26V726.795H1021.18V731.483H1002.26V751H996.974ZM1062.61 718.273V722.534H1045.65V718.273H1062.61ZM1050.6 710.432H1055.63V741.625C1055.63 743.045 1055.83 744.111 1056.24 744.821C1056.67 745.517 1057.21 745.986 1057.86 746.227C1058.53 746.455 1059.23 746.568 1059.97 746.568C1060.53 746.568 1060.98 746.54 1061.34 746.483C1061.69 746.412 1061.98 746.355 1062.19 746.312L1063.21 750.83C1062.87 750.957 1062.39 751.085 1061.78 751.213C1061.17 751.355 1060.4 751.426 1059.46 751.426C1058.04 751.426 1056.65 751.121 1055.28 750.51C1053.94 749.899 1052.81 748.969 1051.92 747.719C1051.04 746.469 1050.6 744.892 1050.6 742.989V710.432ZM1083.55 751.682C1080.4 751.682 1077.67 750.986 1075.39 749.594C1073.12 748.188 1071.36 746.227 1070.13 743.713C1068.9 741.185 1068.29 738.244 1068.29 734.892C1068.29 731.54 1068.9 728.585 1070.13 726.028C1071.36 723.457 1073.08 721.455 1075.28 720.02C1077.5 718.571 1080.08 717.847 1083.04 717.847C1084.74 717.847 1086.42 718.131 1088.09 718.699C1089.75 719.267 1091.26 720.19 1092.63 721.469C1093.99 722.733 1095.08 724.409 1095.89 726.497C1096.69 728.585 1097.1 731.156 1097.1 734.21V736.341H1071.87V731.994H1091.99C1091.99 730.148 1091.62 728.5 1090.88 727.051C1090.15 725.602 1089.12 724.459 1087.77 723.621C1086.43 722.783 1084.86 722.364 1083.04 722.364C1081.03 722.364 1079.3 722.861 1077.84 723.855C1076.39 724.835 1075.27 726.114 1074.49 727.69C1073.71 729.267 1073.32 730.957 1073.32 732.761V735.659C1073.32 738.131 1073.75 740.226 1074.6 741.945C1075.47 743.649 1076.67 744.949 1078.2 745.844C1079.73 746.724 1081.52 747.165 1083.55 747.165C1084.87 747.165 1086.06 746.98 1087.13 746.611C1088.21 746.227 1089.14 745.659 1089.92 744.906C1090.7 744.139 1091.3 743.187 1091.73 742.051L1096.59 743.415C1096.08 745.062 1095.22 746.511 1094.01 747.761C1092.8 748.997 1091.31 749.963 1089.54 750.659C1087.76 751.341 1085.76 751.682 1083.55 751.682ZM1114.38 751.767C1112.31 751.767 1110.42 751.376 1108.73 750.595C1107.04 749.8 1105.7 748.656 1104.71 747.165C1103.71 745.659 1103.21 743.841 1103.21 741.71C1103.21 739.835 1103.58 738.315 1104.32 737.151C1105.06 735.972 1106.05 735.048 1107.28 734.381C1108.52 733.713 1109.88 733.216 1111.38 732.889C1112.88 732.548 1114.39 732.278 1115.91 732.08C1117.9 731.824 1119.51 731.632 1120.75 731.504C1122 731.362 1122.91 731.128 1123.48 730.801C1124.06 730.474 1124.35 729.906 1124.35 729.097V728.926C1124.35 726.824 1123.78 725.19 1122.63 724.026C1121.49 722.861 1119.76 722.278 1117.45 722.278C1115.05 722.278 1113.16 722.804 1111.8 723.855C1110.44 724.906 1109.48 726.028 1108.92 727.222L1104.15 725.517C1105 723.528 1106.14 721.98 1107.56 720.872C1109 719.75 1110.56 718.969 1112.25 718.528C1113.95 718.074 1115.63 717.847 1117.28 717.847C1118.33 717.847 1119.54 717.974 1120.9 718.23C1122.28 718.472 1123.61 718.976 1124.88 719.743C1126.18 720.51 1127.25 721.668 1128.1 723.216C1128.95 724.764 1129.38 726.838 1129.38 729.438V751H1124.35V746.568H1124.1C1123.75 747.278 1123.19 748.038 1122.39 748.848C1121.6 749.658 1120.54 750.347 1119.22 750.915C1117.9 751.483 1116.28 751.767 1114.38 751.767ZM1115.15 747.25C1117.14 747.25 1118.81 746.859 1120.17 746.078C1121.55 745.297 1122.59 744.288 1123.29 743.053C1124 741.817 1124.35 740.517 1124.35 739.153V734.551C1124.14 734.807 1123.67 735.041 1122.94 735.254C1122.23 735.453 1121.41 735.631 1120.47 735.787C1119.55 735.929 1118.65 736.057 1117.77 736.17C1116.9 736.27 1116.2 736.355 1115.66 736.426C1114.35 736.597 1113.13 736.874 1111.99 737.257C1110.87 737.626 1109.96 738.187 1109.27 738.94C1108.58 739.679 1108.24 740.687 1108.24 741.966C1108.24 743.713 1108.89 745.034 1110.18 745.929C1111.49 746.81 1113.14 747.25 1115.15 747.25ZM1138.56 751V718.273H1143.42V723.386H1143.84C1144.52 721.639 1145.62 720.283 1147.14 719.317C1148.66 718.337 1150.49 717.847 1152.62 717.847C1154.78 717.847 1156.58 718.337 1158.01 719.317C1159.46 720.283 1160.59 721.639 1161.4 723.386H1161.74C1162.58 721.696 1163.83 720.354 1165.51 719.359C1167.19 718.351 1169.2 717.847 1171.54 717.847C1174.47 717.847 1176.86 718.763 1178.72 720.595C1180.58 722.413 1181.51 725.247 1181.51 729.097V751H1176.48V729.097C1176.48 726.682 1175.82 724.956 1174.5 723.919C1173.18 722.882 1171.63 722.364 1169.84 722.364C1167.53 722.364 1165.75 723.06 1164.49 724.452C1163.22 725.83 1162.59 727.577 1162.59 729.693V751H1157.48V728.585C1157.48 726.724 1156.87 725.226 1155.67 724.089C1154.46 722.939 1152.9 722.364 1151 722.364C1149.69 722.364 1148.47 722.712 1147.34 723.408C1146.21 724.104 1145.3 725.07 1144.61 726.305C1143.93 727.527 1143.59 728.94 1143.59 730.545V751H1138.56Z" fill="white" fill-opacity="0.6"/>
<path d="M667.186 310.842V304.325C686.607 304.325 703.244 290.282 705.865 271.743L726.881 122.466H733.49L712.328 272.574C709.202 294.404 689.797 310.842 667.186 310.842Z" fill="#005286"/>
<path d="M651.607 280.149C647.745 280.269 643.904 279.527 640.364 277.977C636.824 276.427 633.672 274.108 631.138 271.189C628.604 268.269 626.751 264.822 625.713 261.097C624.675 257.372 624.479 253.462 625.137 249.652L639.268 149.591C640.632 141.471 644.776 134.079 650.99 128.681C657.203 123.284 665.098 120.217 673.323 120.006C677.179 119.925 681.007 120.685 684.54 122.232C688.074 123.78 691.228 126.077 693.786 128.966C696.278 131.91 698.101 135.361 699.13 139.079C700.158 142.798 700.368 146.696 699.744 150.503L685.598 250.564C683.335 266.872 668.065 280.149 651.607 280.149ZM673.323 126.522C666.642 126.67 660.222 129.146 655.17 133.524C650.118 137.902 646.75 143.907 645.649 150.503L631.584 250.564C631.053 253.451 631.179 256.42 631.952 259.252C632.725 262.083 634.125 264.704 636.049 266.92C637.972 269.136 640.37 270.89 643.063 272.052C645.756 273.214 648.677 273.754 651.607 273.633C658.272 273.46 664.67 270.973 669.704 266.598C674.739 262.223 678.096 256.232 679.2 249.652L693.347 149.591C693.819 146.713 693.663 143.767 692.89 140.955C692.118 138.143 690.746 135.531 688.87 133.299C686.925 131.109 684.527 129.368 681.842 128.198C679.158 127.028 676.251 126.456 673.323 126.522V126.522Z" fill="#005286"/>
<path d="M797.321 128.836L798.232 122.466H764.925H759.537H758.332L736.356 277.95H738.309H742.949H776.256L777.184 271.433H743.877L753.4 204.053H786.707L787.618 197.536H754.328L764.03 128.836H797.321Z" fill="#005286"/>
<path d="M927.212 122.466H876.73L875.835 128.836H898.951L877.87 277.95H884.479L905.528 128.836H926.316L927.212 122.466Z" fill="#005286"/>
<path d="M839.11 122.466C833.115 122.618 827.36 124.854 822.833 128.79C818.306 132.726 815.289 138.116 814.3 144.035L798.249 257.227C797.861 259.938 798.061 262.7 798.837 265.326C799.612 267.952 800.944 270.379 802.742 272.443C804.591 274.624 806.877 276.393 809.45 277.636C812.024 278.879 814.83 279.569 817.686 279.66H818.012C828.398 279.66 836.977 270.586 842.675 264.542L837.954 260.111C832.972 265.373 825.468 273.323 817.8 273.144C815.868 273.077 813.971 272.608 812.231 271.767C810.49 270.925 808.944 269.73 807.691 268.257C806.497 266.893 805.611 265.288 805.094 263.55C804.577 261.812 804.441 259.984 804.696 258.189L820.747 144.997C821.471 140.598 823.697 136.586 827.045 133.645C830.394 130.704 834.657 129.016 839.11 128.868H861.754L862.649 122.498L839.11 122.466Z" fill="#005286"/>
<path d="M553.363 129.096C551.482 126.963 549.159 125.265 546.556 124.123C543.952 122.98 541.131 122.42 538.288 122.482H514.977L493 278.031H499.609L510.044 204.118H527.691C533.696 203.959 539.459 201.71 543.987 197.758C548.515 193.807 551.525 188.399 552.5 182.467L557.791 144.997C558.256 142.184 558.101 139.303 557.336 136.556C556.571 133.809 555.215 131.263 553.363 129.096V129.096ZM551.344 144.036L546.037 181.505C545.306 185.884 543.075 189.871 539.728 192.784C536.381 195.697 532.125 197.354 527.691 197.471H510.907L520.674 128.836H538.337C540.251 128.792 542.151 129.173 543.899 129.954C545.648 130.734 547.201 131.893 548.447 133.348C549.694 134.802 550.601 136.515 551.105 138.364C551.609 140.212 551.696 142.149 551.36 144.036H551.344Z" fill="#005286"/>
<path d="M615.24 129.096C613.359 126.963 611.036 125.265 608.433 124.123C605.829 122.98 603.007 122.42 600.165 122.482H576.886L554.861 278.031H561.372L571.954 204.036H588.233L598.814 276.728H605.326L594.582 203.417C599.575 202.261 604.116 199.657 607.637 195.93C611.159 192.204 613.503 187.52 614.377 182.467L619.668 144.997C620.133 142.184 619.978 139.303 619.213 136.556C618.448 133.809 617.092 131.263 615.24 129.096V129.096ZM613.221 144.036L607.93 181.505C607.192 185.884 604.958 189.87 601.608 192.782C598.259 195.694 594.003 197.352 589.568 197.471H572.882L582.535 128.836H600.214C602.128 128.792 604.028 129.173 605.776 129.954C607.525 130.734 609.078 131.893 610.324 133.348C611.57 134.802 612.478 136.515 612.982 138.364C613.486 140.212 613.573 142.149 613.237 144.036H613.221Z" fill="#005286"/>
<path d="M857.244 471.034H850.635L872.612 315.566H879.205L857.244 471.034Z" fill="#005286"/>
<path d="M600.165 471.295C596.814 471.378 593.483 470.746 590.395 469.439C587.308 468.133 584.533 466.183 582.258 463.719C580.489 461.703 579.182 459.324 578.429 456.749C577.675 454.174 577.493 451.466 577.895 448.813L580.028 434.819L587.191 431.007L584.325 449.774C584.058 451.495 584.175 453.254 584.668 454.924C585.16 456.595 586.016 458.135 587.174 459.435C588.84 461.202 590.863 462.593 593.109 463.515C595.355 464.436 597.772 464.867 600.198 464.778V464.778C610.649 464.778 620.156 457.627 621.36 448.813L630.184 386.368L583.349 411.245L593.718 336.305C595.346 324.413 607.8 314.736 621.393 314.736C624.744 314.656 628.073 315.29 631.161 316.596C634.248 317.902 637.022 319.85 639.3 322.311C641.061 324.329 642.363 326.706 643.116 329.277C643.869 331.847 644.056 334.551 643.663 337.201L641.709 351.342L634.628 355.154L637.298 336.256C637.579 334.519 637.47 332.741 636.981 331.05C636.491 329.359 635.631 327.799 634.465 326.482C632.798 324.717 630.774 323.327 628.528 322.406C626.283 321.485 623.867 321.052 621.442 321.138C610.991 321.138 601.484 328.29 600.279 337.087L591.667 399.434L638.551 374.541L627.937 449.644C626.13 461.618 613.725 471.295 600.165 471.295Z" fill="#005286"/>
<path d="M776.5 315.566H769.158L725.368 399.825L737.268 315.566H730.675L708.698 471.034H715.291L722.616 419.228L739.888 385.994L760.416 471.034H767.107L744.463 377.196L776.5 315.566Z" fill="#005286"/>
<path d="M826.721 471.034H833.233L829.505 316.479V315.566H822.993L775.279 471.034H782.084L798.07 418.902H825.467L826.721 471.034ZM800.072 412.386L823.465 336.159L825.305 412.418L800.072 412.386Z" fill="#005286"/>
<path d="M708.828 321.92L709.74 315.55H676.433H671.028H669.824L647.863 471.034H649.817H654.456H687.763L688.675 464.518H655.384L664.907 397.137H698.198L699.126 390.62H665.819L675.537 321.92H708.828Z" fill="#005286"/>
<path d="M948.309 122.466H962.749L910.509 470.985H896.07L948.309 122.466Z" fill="url(#paint0_linear_722_103)"/>
<path d="M1134.09 144.247C1137.65 120.56 1032.49 122.449 975.723 122.449L954.675 262.832C1008.98 259.671 1116.65 259.573 1112.92 284.45C1111.07 296.799 1103.92 296.326 1102.99 302.501C1100.52 319.02 1218.48 311.657 1235.1 309.864L1199.51 239.91L1256 169.385C1227.56 172.333 1121.75 177.433 1123.96 162.624C1125.15 154.69 1132.77 153.566 1134.09 144.247Z" fill="url(#paint1_linear_722_103)"/>
<path d="M1021 141.184L1011.55 182.304C1008.57 179.824 1004.78 178.526 1000.91 178.654C993.321 178.654 987.183 183.249 987.2 188.869C987.216 194.49 993.386 199.035 1000.97 199.002C1007.48 199.002 1013.02 195.548 1014.37 190.987C1014.37 190.759 1014.47 190.531 1014.52 190.303L1020.18 165.051C1030.14 167.289 1035.42 170.145 1036 173.62C1036.57 177.137 1035.83 180.739 1033.94 183.754C1036.58 182.35 1038.82 180.295 1040.44 177.783C1042.06 175.272 1043.02 172.386 1043.22 169.401C1043.74 163.015 1036.33 153.609 1021 141.184Z" fill="url(#paint2_linear_722_103)"/>
<path d="M478.46 662V567.455H515.761C522.932 567.455 529.042 568.824 534.089 571.563C539.136 574.272 542.983 578.042 545.63 582.874C548.308 587.675 549.646 593.214 549.646 599.493C549.646 605.771 548.292 611.311 545.584 616.112C542.876 620.913 538.952 624.653 533.812 627.33C528.703 630.008 522.517 631.347 515.254 631.347H491.479V615.327H512.022C515.869 615.327 519.039 614.666 521.532 613.342C524.056 611.988 525.933 610.126 527.164 607.756C528.426 605.356 529.057 602.601 529.057 599.493C529.057 596.354 528.426 593.615 527.164 591.276C525.933 588.906 524.056 587.075 521.532 585.782C519.008 584.459 515.808 583.797 511.93 583.797H498.45V662H478.46ZM557.061 662V591.091H576.127V603.463H576.866C578.158 599.062 580.328 595.738 583.375 593.491C586.422 591.214 589.93 590.075 593.9 590.075C594.885 590.075 595.947 590.137 597.086 590.26C598.225 590.383 599.225 590.552 600.086 590.768V608.218C599.163 607.941 597.886 607.695 596.255 607.479C594.624 607.264 593.131 607.156 591.777 607.156C588.884 607.156 586.299 607.787 584.021 609.049C581.774 610.28 579.989 612.004 578.666 614.219C577.373 616.435 576.727 618.99 576.727 621.883V662H557.061ZM633.792 663.385C626.621 663.385 620.419 661.862 615.187 658.815C609.986 655.737 605.97 651.459 603.138 645.981C600.307 640.472 598.891 634.086 598.891 626.822C598.891 619.498 600.307 613.096 603.138 607.618C605.97 602.109 609.986 597.831 615.187 594.784C620.419 591.706 626.621 590.168 633.792 590.168C640.963 590.168 647.149 591.706 652.35 594.784C657.582 597.831 661.614 602.109 664.445 607.618C667.277 613.096 668.692 619.498 668.692 626.822C668.692 634.086 667.277 640.472 664.445 645.981C661.614 651.459 657.582 655.737 652.35 658.815C647.149 661.862 640.963 663.385 633.792 663.385ZM633.884 648.151C637.146 648.151 639.87 647.227 642.055 645.381C644.24 643.503 645.887 640.949 646.995 637.717C648.134 634.486 648.703 630.808 648.703 626.684C648.703 622.56 648.134 618.882 646.995 615.651C645.887 612.419 644.24 609.865 642.055 607.987C639.87 606.11 637.146 605.171 633.884 605.171C630.591 605.171 627.821 606.11 625.575 607.987C623.359 609.865 621.681 612.419 620.543 615.651C619.435 618.882 618.881 622.56 618.881 626.684C618.881 630.808 619.435 634.486 620.543 637.717C621.681 640.949 623.359 643.503 625.575 645.381C627.821 647.227 630.591 648.151 633.884 648.151ZM676.28 591.091H695.946V665.509C695.946 670.987 694.869 675.419 692.715 678.804C690.56 682.189 687.467 684.667 683.436 686.237C679.435 687.806 674.649 688.591 669.078 688.591C668.401 688.591 667.755 688.576 667.139 688.545C666.493 688.545 665.816 688.529 665.108 688.499V673.126C665.631 673.156 666.093 673.172 666.493 673.172C666.862 673.203 667.263 673.218 667.693 673.218C670.863 673.218 673.079 672.541 674.341 671.187C675.634 669.863 676.28 667.863 676.28 665.185V591.091ZM686.067 581.95C683.174 581.95 680.681 580.981 678.588 579.042C676.495 577.072 675.449 574.718 675.449 571.979C675.449 569.27 676.495 566.947 678.588 565.008C680.681 563.038 683.174 562.053 686.067 562.053C689.022 562.053 691.53 563.038 693.592 565.008C695.685 566.947 696.731 569.27 696.731 571.979C696.731 574.718 695.685 577.072 693.592 579.042C691.53 580.981 689.022 581.95 686.067 581.95ZM738.815 663.385C731.521 663.385 725.243 661.908 719.98 658.953C714.748 655.968 710.716 651.751 707.885 646.304C705.053 640.826 703.638 634.347 703.638 626.869C703.638 619.575 705.053 613.173 707.885 607.664C710.716 602.155 714.702 597.862 719.842 594.784C725.012 591.706 731.075 590.168 738.031 590.168C742.709 590.168 747.063 590.922 751.095 592.43C755.158 593.907 758.697 596.138 761.713 599.124C764.76 602.109 767.13 605.864 768.822 610.388C770.515 614.881 771.361 620.144 771.361 626.176V631.577H711.486V619.39H752.849C752.849 616.558 752.234 614.05 751.003 611.865C749.772 609.68 748.064 607.972 745.879 606.741C743.724 605.479 741.216 604.848 738.354 604.848C735.368 604.848 732.722 605.54 730.413 606.925C728.136 608.28 726.351 610.111 725.058 612.419C723.766 614.696 723.104 617.236 723.073 620.036V631.624C723.073 635.132 723.719 638.164 725.012 640.718C726.335 643.272 728.197 645.242 730.598 646.627C732.999 648.012 735.845 648.705 739.138 648.705C741.324 648.705 743.324 648.397 745.14 647.781C746.956 647.166 748.51 646.242 749.803 645.011C751.095 643.78 752.08 642.272 752.757 640.487L770.946 641.688C770.023 646.058 768.13 649.874 765.268 653.136C762.436 656.368 758.774 658.892 754.281 660.707C749.818 662.492 744.663 663.385 738.815 663.385ZM811.034 663.385C803.77 663.385 797.523 661.846 792.291 658.768C787.09 655.66 783.089 651.351 780.288 645.842C777.518 640.333 776.133 633.993 776.133 626.822C776.133 619.559 777.533 613.188 780.334 607.71C783.166 602.201 787.182 597.908 792.383 594.83C797.584 591.722 803.77 590.168 810.941 590.168C817.127 590.168 822.544 591.291 827.191 593.538C831.839 595.784 835.516 598.939 838.225 603.001C840.933 607.064 842.426 611.834 842.703 617.312H824.144C823.621 613.773 822.236 610.926 819.99 608.772C817.774 606.587 814.865 605.494 811.264 605.494C808.218 605.494 805.555 606.325 803.278 607.987C801.031 609.618 799.277 612.004 798.015 615.143C796.753 618.282 796.122 622.083 796.122 626.545C796.122 631.07 796.738 634.917 797.969 638.087C799.231 641.257 801 643.673 803.278 645.335C805.555 646.996 808.218 647.827 811.264 647.827C813.511 647.827 815.527 647.366 817.312 646.442C819.128 645.519 820.621 644.18 821.79 642.426C822.99 640.641 823.775 638.502 824.144 636.009H842.703C842.395 641.426 840.918 646.196 838.271 650.32C835.655 654.414 832.039 657.614 827.422 659.923C822.806 662.231 817.343 663.385 811.034 663.385ZM887.811 591.091V605.864H845.108V591.091H887.811ZM854.803 574.102H874.469V640.21C874.469 642.026 874.746 643.442 875.3 644.457C875.854 645.442 876.623 646.135 877.608 646.535C878.624 646.935 879.793 647.135 881.117 647.135C882.04 647.135 882.963 647.058 883.887 646.904C884.81 646.719 885.518 646.581 886.01 646.489L889.103 661.123C888.118 661.431 886.734 661.785 884.949 662.185C883.163 662.616 880.994 662.877 878.439 662.969C873.7 663.154 869.545 662.523 865.975 661.077C862.435 659.63 859.681 657.384 857.711 654.337C855.742 651.29 854.772 647.443 854.803 642.795V574.102ZM971.968 594.646C971.598 590.922 970.013 588.029 967.213 585.967C964.412 583.905 960.611 582.874 955.81 582.874C952.548 582.874 949.793 583.335 947.547 584.259C945.3 585.151 943.576 586.397 942.376 587.998C941.207 589.598 940.622 591.414 940.622 593.445C940.56 595.138 940.914 596.615 941.684 597.877C942.484 599.139 943.576 600.232 944.961 601.155C946.346 602.047 947.947 602.832 949.762 603.509C951.578 604.156 953.517 604.71 955.579 605.171L964.074 607.202C968.198 608.126 971.983 609.357 975.43 610.896C978.877 612.434 981.862 614.327 984.386 616.574C986.91 618.821 988.864 621.467 990.249 624.514C991.665 627.561 992.388 631.054 992.419 634.994C992.388 640.78 990.911 645.796 987.987 650.043C985.094 654.26 980.908 657.537 975.43 659.876C969.983 662.185 963.412 663.339 955.718 663.339C948.085 663.339 941.437 662.169 935.775 659.83C930.142 657.491 925.741 654.029 922.571 649.443C919.432 644.827 917.786 639.118 917.632 632.316H936.975C937.19 635.486 938.098 638.133 939.699 640.256C941.33 642.349 943.499 643.934 946.208 645.011C948.947 646.058 952.04 646.581 955.487 646.581C958.872 646.581 961.811 646.089 964.304 645.104C966.828 644.119 968.782 642.749 970.167 640.995C971.552 639.241 972.245 637.225 972.245 634.947C972.245 632.824 971.614 631.039 970.352 629.592C969.121 628.146 967.305 626.915 964.905 625.899C962.535 624.884 959.626 623.96 956.179 623.129L945.885 620.544C937.914 618.605 931.62 615.574 927.003 611.45C922.387 607.326 920.094 601.77 920.125 594.784C920.094 589.06 921.617 584.058 924.695 579.781C927.803 575.503 932.066 572.163 937.483 569.763C942.899 567.362 949.055 566.162 955.949 566.162C962.966 566.162 969.09 567.362 974.322 569.763C979.585 572.163 983.678 575.503 986.602 579.781C989.526 584.058 991.034 589.013 991.126 594.646H971.968ZM1000.66 662V567.455H1064.37V583.935H1020.65V606.464H1061.09V622.945H1020.65V645.519H1064.56V662H1000.66ZM1075.06 662V567.455H1095.05V609.141H1096.3L1130.32 567.455H1154.28L1119.2 609.788L1154.7 662H1130.78L1104.89 623.129L1095.05 635.132V662H1075.06ZM1175.79 662H1154.37L1187.01 567.455H1212.77L1245.36 662H1223.94L1200.26 589.06H1199.52L1175.79 662ZM1174.45 624.837H1225.05V640.441H1174.45V624.837ZM1271.53 567.455V662H1251.54V567.455H1271.53Z" fill="url(#paint3_linear_722_103)"/>
<path d="M565.431 707.364H571.482L583.584 727.733H584.095L596.198 707.364H602.249L586.482 733.017V751H581.198V733.017L565.431 707.364ZM617.494 751.682C614.34 751.682 611.62 750.986 609.333 749.594C607.061 748.188 605.306 746.227 604.07 743.713C602.849 741.185 602.238 738.244 602.238 734.892C602.238 731.54 602.849 728.585 604.07 726.028C605.306 723.457 607.025 721.455 609.227 720.02C611.443 718.571 614.028 717.847 616.982 717.847C618.687 717.847 620.37 718.131 622.032 718.699C623.694 719.267 625.207 720.19 626.57 721.469C627.934 722.733 629.021 724.409 629.83 726.497C630.64 728.585 631.045 731.156 631.045 734.21V736.341H605.818V731.994H625.931C625.931 730.148 625.562 728.5 624.823 727.051C624.099 725.602 623.062 724.459 621.713 723.621C620.377 722.783 618.801 722.364 616.982 722.364C614.98 722.364 613.247 722.861 611.784 723.855C610.335 724.835 609.22 726.114 608.438 727.69C607.657 729.267 607.267 730.957 607.267 732.761V735.659C607.267 738.131 607.693 740.226 608.545 741.945C609.411 743.649 610.612 744.949 612.146 745.844C613.68 746.724 615.463 747.165 617.494 747.165C618.815 747.165 620.008 746.98 621.073 746.611C622.153 746.227 623.083 745.659 623.865 744.906C624.646 744.139 625.249 743.187 625.676 742.051L630.534 743.415C630.022 745.062 629.163 746.511 627.955 747.761C626.748 748.997 625.257 749.963 623.481 750.659C621.705 751.341 619.71 751.682 617.494 751.682ZM652.927 718.273V722.534H635.967V718.273H652.927ZM640.91 710.432H645.938V741.625C645.938 743.045 646.144 744.111 646.556 744.821C646.982 745.517 647.522 745.986 648.176 746.227C648.843 746.455 649.546 746.568 650.285 746.568C650.839 746.568 651.294 746.54 651.649 746.483C652.004 746.412 652.288 746.355 652.501 746.312L653.524 750.83C653.183 750.957 652.707 751.085 652.096 751.213C651.485 751.355 650.711 751.426 649.774 751.426C648.353 751.426 646.961 751.121 645.597 750.51C644.248 749.899 643.126 748.969 642.231 747.719C641.35 746.469 640.91 744.892 640.91 742.989V710.432ZM686.997 751.767C684.923 751.767 683.041 751.376 681.35 750.595C679.66 749.8 678.318 748.656 677.323 747.165C676.329 745.659 675.832 743.841 675.832 741.71C675.832 739.835 676.201 738.315 676.94 737.151C677.678 735.972 678.666 735.048 679.901 734.381C681.137 733.713 682.501 733.216 683.992 732.889C685.498 732.548 687.011 732.278 688.531 732.08C690.519 731.824 692.132 731.632 693.367 731.504C694.617 731.362 695.526 731.128 696.095 730.801C696.677 730.474 696.968 729.906 696.968 729.097V728.926C696.968 726.824 696.393 725.19 695.242 724.026C694.106 722.861 692.38 722.278 690.065 722.278C687.664 722.278 685.782 722.804 684.419 723.855C683.055 724.906 682.096 726.028 681.542 727.222L676.769 725.517C677.622 723.528 678.758 721.98 680.178 720.872C681.613 719.75 683.176 718.969 684.866 718.528C686.57 718.074 688.247 717.847 689.894 717.847C690.945 717.847 692.153 717.974 693.517 718.23C694.894 718.472 696.222 718.976 697.501 719.743C698.794 720.51 699.866 721.668 700.718 723.216C701.57 724.764 701.997 726.838 701.997 729.438V751H696.968V746.568H696.713C696.372 747.278 695.803 748.038 695.008 748.848C694.213 749.658 693.154 750.347 691.833 750.915C690.512 751.483 688.9 751.767 686.997 751.767ZM687.764 747.25C689.752 747.25 691.428 746.859 692.792 746.078C694.17 745.297 695.207 744.288 695.903 743.053C696.613 741.817 696.968 740.517 696.968 739.153V734.551C696.755 734.807 696.286 735.041 695.562 735.254C694.852 735.453 694.028 735.631 693.09 735.787C692.167 735.929 691.265 736.057 690.384 736.17C689.518 736.27 688.815 736.355 688.275 736.426C686.968 736.597 685.747 736.874 684.61 737.257C683.488 737.626 682.579 738.187 681.883 738.94C681.201 739.679 680.86 740.687 680.86 741.966C680.86 743.713 681.507 745.034 682.799 745.929C684.106 746.81 685.761 747.25 687.764 747.25ZM716.203 731.312V751H711.175V718.273H716.032V723.386H716.459C717.226 721.724 718.39 720.389 719.953 719.381C721.515 718.358 723.532 717.847 726.004 717.847C728.22 717.847 730.159 718.301 731.821 719.21C733.483 720.105 734.775 721.469 735.699 723.301C736.622 725.119 737.084 727.42 737.084 730.205V751H732.055V730.545C732.055 727.974 731.388 725.972 730.052 724.537C728.717 723.088 726.885 722.364 724.555 722.364C722.95 722.364 721.515 722.712 720.251 723.408C719.001 724.104 718.014 725.119 717.29 726.455C716.565 727.79 716.203 729.409 716.203 731.312ZM759.568 751.682C756.613 751.682 754.021 750.979 751.791 749.572C749.575 748.166 747.842 746.199 746.592 743.67C745.356 741.142 744.738 738.187 744.738 734.807C744.738 731.398 745.356 728.422 746.592 725.879C747.842 723.337 749.575 721.362 751.791 719.956C754.021 718.55 756.613 717.847 759.568 717.847C762.522 717.847 765.107 718.55 767.323 719.956C769.553 721.362 771.286 723.337 772.522 725.879C773.772 728.422 774.397 731.398 774.397 734.807C774.397 738.187 773.772 741.142 772.522 743.67C771.286 746.199 769.553 748.166 767.323 749.572C765.107 750.979 762.522 751.682 759.568 751.682ZM759.568 747.165C761.812 747.165 763.659 746.589 765.107 745.439C766.556 744.288 767.629 742.776 768.325 740.901C769.021 739.026 769.369 736.994 769.369 734.807C769.369 732.619 769.021 730.581 768.325 728.692C767.629 726.803 766.556 725.276 765.107 724.111C763.659 722.946 761.812 722.364 759.568 722.364C757.323 722.364 755.477 722.946 754.028 724.111C752.579 725.276 751.507 726.803 750.811 728.692C750.115 730.581 749.767 732.619 749.767 734.807C749.767 736.994 750.115 739.026 750.811 740.901C751.507 742.776 752.579 744.288 754.028 745.439C755.477 746.589 757.323 747.165 759.568 747.165ZM796.306 718.273V722.534H779.346V718.273H796.306ZM784.289 710.432H789.317V741.625C789.317 743.045 789.523 744.111 789.935 744.821C790.361 745.517 790.901 745.986 791.555 746.227C792.222 746.455 792.925 746.568 793.664 746.568C794.218 746.568 794.672 746.54 795.028 746.483C795.383 746.412 795.667 746.355 795.88 746.312L796.903 750.83C796.562 750.957 796.086 751.085 795.475 751.213C794.864 751.355 794.09 751.426 793.153 751.426C791.732 751.426 790.34 751.121 788.976 750.51C787.627 749.899 786.505 748.969 785.61 747.719C784.729 746.469 784.289 744.892 784.289 742.989V710.432ZM809.601 731.312V751H804.573V707.364H809.601V723.386H810.028C810.795 721.696 811.945 720.354 813.479 719.359C815.028 718.351 817.087 717.847 819.658 717.847C821.888 717.847 823.841 718.294 825.518 719.189C827.194 720.07 828.493 721.426 829.417 723.259C830.354 725.077 830.823 727.392 830.823 730.205V751H825.795V730.545C825.795 727.946 825.12 725.936 823.77 724.516C822.435 723.081 820.581 722.364 818.209 722.364C816.562 722.364 815.084 722.712 813.778 723.408C812.485 724.104 811.462 725.119 810.709 726.455C809.971 727.79 809.601 729.409 809.601 731.312ZM853.744 751.682C850.59 751.682 847.87 750.986 845.583 749.594C843.311 748.188 841.556 746.227 840.32 743.713C839.099 741.185 838.488 738.244 838.488 734.892C838.488 731.54 839.099 728.585 840.32 726.028C841.556 723.457 843.275 721.455 845.477 720.02C847.693 718.571 850.278 717.847 853.232 717.847C854.937 717.847 856.62 718.131 858.282 718.699C859.944 719.267 861.457 720.19 862.82 721.469C864.184 722.733 865.271 724.409 866.08 726.497C866.89 728.585 867.295 731.156 867.295 734.21V736.341H842.068V731.994H862.181C862.181 730.148 861.812 728.5 861.073 727.051C860.349 725.602 859.312 724.459 857.963 723.621C856.627 722.783 855.051 722.364 853.232 722.364C851.23 722.364 849.497 722.861 848.034 723.855C846.585 724.835 845.47 726.114 844.688 727.69C843.907 729.267 843.517 730.957 843.517 732.761V735.659C843.517 738.131 843.943 740.226 844.795 741.945C845.661 743.649 846.862 744.949 848.396 745.844C849.93 746.724 851.713 747.165 853.744 747.165C855.065 747.165 856.258 746.98 857.323 746.611C858.403 746.227 859.333 745.659 860.115 744.906C860.896 744.139 861.499 743.187 861.926 742.051L866.784 743.415C866.272 745.062 865.413 746.511 864.205 747.761C862.998 748.997 861.507 749.963 859.731 750.659C857.955 751.341 855.96 751.682 853.744 751.682ZM874.944 751V718.273H879.802V723.216H880.143C880.74 721.597 881.819 720.283 883.382 719.274C884.944 718.266 886.705 717.761 888.666 717.761C889.035 717.761 889.497 717.768 890.051 717.783C890.605 717.797 891.024 717.818 891.308 717.847V722.96C891.137 722.918 890.747 722.854 890.136 722.768C889.539 722.669 888.907 722.619 888.24 722.619C886.649 722.619 885.228 722.953 883.978 723.621C882.742 724.274 881.762 725.183 881.038 726.348C880.328 727.499 879.972 728.812 879.972 730.29V751H874.944ZM949.939 721H944.655C944.342 719.48 943.795 718.145 943.014 716.994C942.247 715.844 941.309 714.878 940.202 714.097C939.108 713.301 937.893 712.705 936.558 712.307C935.223 711.909 933.831 711.71 932.382 711.71C929.74 711.71 927.346 712.378 925.202 713.713C923.071 715.048 921.373 717.016 920.109 719.615C918.859 722.214 918.234 725.403 918.234 729.182C918.234 732.96 918.859 736.149 920.109 738.749C921.373 741.348 923.071 743.315 925.202 744.651C927.346 745.986 929.74 746.653 932.382 746.653C933.831 746.653 935.223 746.455 936.558 746.057C937.893 745.659 939.108 745.07 940.202 744.288C941.309 743.493 942.247 742.52 943.014 741.369C943.795 740.205 944.342 738.869 944.655 737.364H949.939C949.541 739.594 948.817 741.589 947.765 743.351C946.714 745.112 945.407 746.611 943.845 747.847C942.282 749.068 940.528 749.999 938.582 750.638C936.65 751.277 934.584 751.597 932.382 751.597C928.66 751.597 925.351 750.688 922.453 748.869C919.555 747.051 917.275 744.466 915.613 741.114C913.952 737.761 913.121 733.784 913.121 729.182C913.121 724.58 913.952 720.602 915.613 717.25C917.275 713.898 919.555 711.312 922.453 709.494C925.351 707.676 928.66 706.767 932.382 706.767C934.584 706.767 936.65 707.087 938.582 707.726C940.528 708.365 942.282 709.303 943.845 710.538C945.407 711.76 946.714 713.251 947.765 715.013C948.817 716.76 949.541 718.756 949.939 721ZM956.091 712.051V707.364H988.818V712.051H975.097V751H969.813V712.051H956.091ZM996.974 751V707.364H1023.14V712.051H1002.26V726.795H1021.18V731.483H1002.26V751H996.974ZM1062.61 718.273V722.534H1045.65V718.273H1062.61ZM1050.6 710.432H1055.63V741.625C1055.63 743.045 1055.83 744.111 1056.24 744.821C1056.67 745.517 1057.21 745.986 1057.86 746.227C1058.53 746.455 1059.23 746.568 1059.97 746.568C1060.53 746.568 1060.98 746.54 1061.34 746.483C1061.69 746.412 1061.98 746.355 1062.19 746.312L1063.21 750.83C1062.87 750.957 1062.39 751.085 1061.78 751.213C1061.17 751.355 1060.4 751.426 1059.46 751.426C1058.04 751.426 1056.65 751.121 1055.28 750.51C1053.94 749.899 1052.81 748.969 1051.92 747.719C1051.04 746.469 1050.6 744.892 1050.6 742.989V710.432ZM1083.55 751.682C1080.4 751.682 1077.67 750.986 1075.39 749.594C1073.12 748.188 1071.36 746.227 1070.13 743.713C1068.9 741.185 1068.29 738.244 1068.29 734.892C1068.29 731.54 1068.9 728.585 1070.13 726.028C1071.36 723.457 1073.08 721.455 1075.28 720.02C1077.5 718.571 1080.08 717.847 1083.04 717.847C1084.74 717.847 1086.42 718.131 1088.09 718.699C1089.75 719.267 1091.26 720.19 1092.63 721.469C1093.99 722.733 1095.08 724.409 1095.89 726.497C1096.69 728.585 1097.1 731.156 1097.1 734.21V736.341H1071.87V731.994H1091.99C1091.99 730.148 1091.62 728.5 1090.88 727.051C1090.15 725.602 1089.12 724.459 1087.77 723.621C1086.43 722.783 1084.86 722.364 1083.04 722.364C1081.03 722.364 1079.3 722.861 1077.84 723.855C1076.39 724.835 1075.27 726.114 1074.49 727.69C1073.71 729.267 1073.32 730.957 1073.32 732.761V735.659C1073.32 738.131 1073.75 740.226 1074.6 741.945C1075.47 743.649 1076.67 744.949 1078.2 745.844C1079.73 746.724 1081.52 747.165 1083.55 747.165C1084.87 747.165 1086.06 746.98 1087.13 746.611C1088.21 746.227 1089.14 745.659 1089.92 744.906C1090.7 744.139 1091.3 743.187 1091.73 742.051L1096.59 743.415C1096.08 745.062 1095.22 746.511 1094.01 747.761C1092.8 748.997 1091.31 749.963 1089.54 750.659C1087.76 751.341 1085.76 751.682 1083.55 751.682ZM1114.38 751.767C1112.31 751.767 1110.42 751.376 1108.73 750.595C1107.04 749.8 1105.7 748.656 1104.71 747.165C1103.71 745.659 1103.21 743.841 1103.21 741.71C1103.21 739.835 1103.58 738.315 1104.32 737.151C1105.06 735.972 1106.05 735.048 1107.28 734.381C1108.52 733.713 1109.88 733.216 1111.38 732.889C1112.88 732.548 1114.39 732.278 1115.91 732.08C1117.9 731.824 1119.51 731.632 1120.75 731.504C1122 731.362 1122.91 731.128 1123.48 730.801C1124.06 730.474 1124.35 729.906 1124.35 729.097V728.926C1124.35 726.824 1123.78 725.19 1122.63 724.026C1121.49 722.861 1119.76 722.278 1117.45 722.278C1115.05 722.278 1113.16 722.804 1111.8 723.855C1110.44 724.906 1109.48 726.028 1108.92 727.222L1104.15 725.517C1105 723.528 1106.14 721.98 1107.56 720.872C1109 719.75 1110.56 718.969 1112.25 718.528C1113.95 718.074 1115.63 717.847 1117.28 717.847C1118.33 717.847 1119.54 717.974 1120.9 718.23C1122.28 718.472 1123.61 718.976 1124.88 719.743C1126.18 720.51 1127.25 721.668 1128.1 723.216C1128.95 724.764 1129.38 726.838 1129.38 729.438V751H1124.35V746.568H1124.1C1123.75 747.278 1123.19 748.038 1122.39 748.848C1121.6 749.658 1120.54 750.347 1119.22 750.915C1117.9 751.483 1116.28 751.767 1114.38 751.767ZM1115.15 747.25C1117.14 747.25 1118.81 746.859 1120.17 746.078C1121.55 745.297 1122.59 744.288 1123.29 743.053C1124 741.817 1124.35 740.517 1124.35 739.153V734.551C1124.14 734.807 1123.67 735.041 1122.94 735.254C1122.23 735.453 1121.41 735.631 1120.47 735.787C1119.55 735.929 1118.65 736.057 1117.77 736.17C1116.9 736.27 1116.2 736.355 1115.66 736.426C1114.35 736.597 1113.13 736.874 1111.99 737.257C1110.87 737.626 1109.96 738.187 1109.27 738.94C1108.58 739.679 1108.24 740.687 1108.24 741.966C1108.24 743.713 1108.89 745.034 1110.18 745.929C1111.49 746.81 1113.14 747.25 1115.15 747.25ZM1138.56 751V718.273H1143.42V723.386H1143.84C1144.52 721.639 1145.62 720.283 1147.14 719.317C1148.66 718.337 1150.49 717.847 1152.62 717.847C1154.78 717.847 1156.58 718.337 1158.01 719.317C1159.46 720.283 1160.59 721.639 1161.4 723.386H1161.74C1162.58 721.696 1163.83 720.354 1165.51 719.359C1167.19 718.351 1169.2 717.847 1171.54 717.847C1174.47 717.847 1176.86 718.763 1178.72 720.595C1180.58 722.413 1181.51 725.247 1181.51 729.097V751H1176.48V729.097C1176.48 726.682 1175.82 724.956 1174.5 723.919C1173.18 722.882 1171.63 722.364 1169.84 722.364C1167.53 722.364 1165.75 723.06 1164.49 724.452C1163.22 725.83 1162.59 727.577 1162.59 729.693V751H1157.48V728.585C1157.48 726.724 1156.87 725.226 1155.67 724.089C1154.46 722.939 1152.9 722.364 1151 722.364C1149.69 722.364 1148.47 722.712 1147.34 723.408C1146.21 724.104 1145.3 725.07 1144.61 726.305C1143.93 727.527 1143.59 728.94 1143.59 730.545V751H1138.56Z" fill="url(#paint4_linear_722_103)" fill-opacity="0.6"/>
<defs>
<linearGradient id="paint0_linear_722_103" x1="970.796" y1="112.779" x2="970.796" y2="461.668" gradientUnits="userSpaceOnUse">
<stop stop-color="#00E5EA"/>
<stop offset="1" stop-color="#00B5CC"/>
</linearGradient>
<linearGradient id="paint1_linear_722_103" x1="1130.02" y1="130.725" x2="1129.36" y2="321.35" gradientUnits="userSpaceOnUse">
<stop stop-color="#00E5EA"/>
<stop offset="1" stop-color="#00B5CC"/>
</linearGradient>
<linearGradient id="paint2_linear_722_103" x1="1015.17" y1="143.091" x2="1015.17" y2="198.155" gradientUnits="userSpaceOnUse">
<stop stop-color="#0069A5"/>
<stop offset="1" stop-color="#003D6B"/>
</linearGradient>
<linearGradient id="paint3_linear_722_103" x1="875" y1="519" x2="875" y2="774" gradientUnits="userSpaceOnUse">
<stop stop-color="#005286"/>
<stop offset="1" stop-color="#003D6B"/>
</linearGradient>
<linearGradient id="paint4_linear_722_103" x1="875" y1="519" x2="875" y2="774" gradientUnits="userSpaceOnUse">
<stop stop-color="#005286"/>
<stop offset="1" stop-color="#003D6B"/>
</linearGradient>
</defs>
</svg>
